<svg fill="#ffffff" height="200px" width="200px" version="1.1" id="Capa_1" xmlns="http://www.w3.org/2000/svg" xmlns:xlink="http://www.w3.org/1999/xlink" viewBox="0 0 463.001 463.001" xml:space="preserve" stroke="#ffffff"><g id="SVGRepo_bgCarrier" stroke-width="0"></g><g id="SVGRepo_tracerCarrier" stroke-linecap="round" stroke-linejoin="round"></g><g id="SVGRepo_iconCarrier"> <path d="M461.741,423.34l-46.74-70.11V283h0.5c4.143,0,7.5-3.358,7.5-7.5s-3.357-7.5-7.5-7.5h-0.5V83h0.5c4.143,0,7.5-3.358,7.5-7.5 s-3.357-7.5-7.5-7.5h-0.5V43.5c0-4.142-3.357-7.5-7.5-7.5h-24.5v-0.5c0-4.142-3.357-7.5-7.5-7.5s-7.5,3.358-7.5,7.5V36h-129v-0.5 c0-4.142-3.357-7.5-7.5-7.5s-7.5,3.358-7.5,7.5V36h-129v-0.5c0-4.142-3.357-7.5-7.5-7.5s-7.5,3.358-7.5,7.5V36h-24.5 c-4.143,0-7.5,3.358-7.5,7.5V68h-0.5c-4.143,0-7.5,3.358-7.5,7.5s3.357,7.5,7.5,7.5h0.5v185h-0.5c-4.143,0-7.5,3.358-7.5,7.5 s3.357,7.5,7.5,7.5h0.5v70.229L1.26,423.34c-2.298,3.446-1.366,8.103,2.08,10.4c1.278,0.853,2.724,1.261,4.153,1.261 c2.424,0,4.802-1.173,6.247-3.341l8.44-12.66h25.82v8.5c0,4.142,3.357,7.5,7.5,7.5s7.5-3.358,7.5-7.5V419h25.82l8.44,12.66 c1.445,2.168,3.823,3.341,6.247,3.341c1.43,0,2.875-0.408,4.153-1.261c3.446-2.297,4.378-6.954,2.08-10.4l-46.74-70.11V283h17v72.5 c0,4.142,3.357,7.5,7.5,7.5h288c4.143,0,7.5-3.358,7.5-7.5V283h17v70.229l-46.74,70.11c-2.298,3.446-1.366,8.103,2.08,10.4 c1.278,0.853,2.724,1.261,4.153,1.261c2.424,0,4.802-1.173,6.247-3.341l8.44-12.66h25.82v8.5c0,4.142,3.357,7.5,7.5,7.5 s7.5-3.358,7.5-7.5V419h25.82l8.44,12.66c1.445,2.168,3.823,3.341,6.247,3.341c1.43,0,2.875-0.408,4.153-1.261 C463.107,431.443,464.039,426.786,461.741,423.34z M32.181,404l15.82-23.729V404H32.181z M63.001,404v-23.729L78.82,404H63.001z M400.001,51v17h-17V51H400.001z M368.001,51v17h-129V51H368.001z M224.001,51v17h-129V51H224.001z M63.001,51h17v17h-17V51z M63.001,268V83h17v185H63.001z M368.001,348h-273V83h273V348z M383.001,268V83h17v185H383.001z M384.181,404l15.82-23.729V404 H384.181z M415.001,404v-23.729L430.82,404H415.001z"></path> </g></svg>